<mxfile host="app.diagrams.net" modified="2024-04-10T05:38:38.877Z" agent="Mozilla/5.0 (Windows NT 10.0; Win64; x64) AppleWebKit/537.36 (KHTML, like Gecko) Chrome/123.0.0.0 Safari/537.36" etag="ys7r4FOcFB3BLYrrX0r2" version="24.2.3" type="device">
  <diagram name="1 oldal" id="yTtiCl8wU1QipExr6Qv_">
    <mxGraphModel dx="1850" dy="522" grid="1" gridSize="10" guides="1" tooltips="1" connect="1" arrows="1" fold="1" page="0" pageScale="1" pageWidth="1169" pageHeight="827" math="0" shadow="0">
      <root>
        <mxCell id="0" />
        <mxCell id="1" parent="0" />
        <mxCell id="I_JEJb52zLFdTlIO5UJ--1" value="" style="ellipse;whiteSpace=wrap;html=1;fillColor=#dae8fc;labelBackgroundColor=#FF5E5E;fillStyle=auto;strokeColor=#6c8ebf;opacity=50;" parent="1" vertex="1">
          <mxGeometry x="-640" y="180" width="280" height="280" as="geometry" />
        </mxCell>
        <mxCell id="I_JEJb52zLFdTlIO5UJ--2" value="" style="ellipse;whiteSpace=wrap;html=1;fillStyle=auto;fillColor=#f8cecc;opacity=40;strokeColor=#b85450;" parent="1" vertex="1">
          <mxGeometry x="-600" y="240" width="200" height="200" as="geometry" />
        </mxCell>
        <mxCell id="I_JEJb52zLFdTlIO5UJ--3" value="Code that runs&lt;br&gt;on NodeJS" style="text;html=1;align=center;verticalAlign=middle;resizable=0;points=[];autosize=1;strokeColor=none;fillColor=none;" parent="1" vertex="1">
          <mxGeometry x="-550" y="190" width="100" height="40" as="geometry" />
        </mxCell>
        <mxCell id="I_JEJb52zLFdTlIO5UJ--4" value="Code that runs&lt;br&gt;on edge is the" style="text;html=1;align=center;verticalAlign=middle;resizable=0;points=[];autosize=1;strokeColor=none;fillColor=none;" parent="1" vertex="1">
          <mxGeometry x="-550" y="288" width="100" height="40" as="geometry" />
        </mxCell>
        <mxCell id="I_JEJb52zLFdTlIO5UJ--5" value="JS&lt;br style=&quot;font-size: 14px;&quot;&gt;backend&lt;br style=&quot;font-size: 14px;&quot;&gt;golden path" style="text;html=1;align=center;verticalAlign=middle;resizable=0;points=[];autosize=1;strokeColor=none;fillColor=none;rounded=0;fontStyle=1;fontSize=14;" parent="1" vertex="1">
          <mxGeometry x="-550" y="328" width="100" height="60" as="geometry" />
        </mxCell>
      </root>
    </mxGraphModel>
  </diagram>
</mxfile>
